<svg width="128" height="128" viewBox="0 0 128 128" fill="none" xmlns="http://www.w3.org/2000/svg">
<path d="M0 64C0 28.6538 28.6538 0 64 0C99.3462 0 128 28.6538 128 64C128 99.3462 99.3462 128 64 128C28.6538 128 0 99.3462 0 64Z" fill="#5547EB"/>
<path d="M45.6233 34.176C44.3006 34.2187 43.3406 34.5387 42.7433 35.136C42.1459 35.7333 41.7193 36.9707 41.4633 38.848C41.2499 40.6827 41.1433 43.648 41.1433 47.744C41.1433 52.992 39.7993 56.7893 37.1113 59.136C34.4659 61.44 30.8393 63.0187 26.2313 63.872C30.7966 64.7253 34.4233 66.3253 37.1113 68.672C39.7993 71.0187 41.1433 74.7947 41.1433 80C41.1433 84.2667 41.2499 87.3387 41.4633 89.216C41.7193 91.0933 42.1459 92.3093 42.7433 92.864C43.3406 93.4613 44.3006 93.7813 45.6233 93.824V95.04C41.5699 95.04 38.4126 94.592 36.1513 93.696C33.8899 92.8 32.2259 91.264 31.1593 89.088C30.1353 86.9547 29.6233 83.9253 29.6233 80C29.6233 75.904 29.4739 72.7893 29.1753 70.656C28.9193 68.48 28.4499 66.944 27.7673 66.048C27.0846 65.1093 26.0819 64.576 24.7593 64.448H24.4393V63.296H24.7593C26.0819 63.2107 27.0846 62.72 27.7673 61.824C28.4499 60.8853 28.9193 59.3493 29.1753 57.216C29.4739 55.04 29.6233 51.8827 29.6233 47.744C29.6233 43.9467 30.1353 41.0027 31.1593 38.912C32.2259 36.7787 33.8899 35.264 36.1513 34.368C38.4553 33.4293 41.6126 32.96 45.6233 32.96V34.176Z" fill="#FFF0E6"/>
<path d="M55.3218 55.168C53.0178 55.168 51.3324 54.3787 50.2658 52.8C49.7964 52.16 49.4124 51.3067 49.1138 50.24C48.8151 49.1733 48.6658 48 48.6658 46.72C48.6658 44.5013 49.2418 42.4533 50.3938 40.576C51.5458 38.6987 53.2311 37.248 55.4498 36.224L56.0258 37.376C54.9164 37.888 53.9138 38.6347 53.0178 39.616C52.1644 40.5547 51.5671 41.5573 51.2258 42.624C51.0124 43.2213 50.9058 43.9253 50.9058 44.736C50.9058 45.376 50.9484 45.8453 51.0338 46.144C52.1431 44.8213 53.7004 44.16 55.7058 44.16C57.4124 44.16 58.7778 44.6507 59.8018 45.632C60.8258 46.5707 61.3378 47.9147 61.3378 49.664C61.3378 51.328 60.7831 52.672 59.6738 53.696C58.5644 54.6773 57.1138 55.168 55.3218 55.168Z" fill="#FFF0E6"/>
<path d="M64.4468 72.896C66.4948 72.896 68.0521 73.3653 69.1188 74.304C70.2281 75.2427 70.7828 76.608 70.7828 78.4C70.7828 80.192 70.2281 81.5573 69.1188 82.496C68.0521 83.4347 66.4948 83.904 64.4468 83.904C62.3988 83.904 60.8201 83.4347 59.7108 82.496C58.6441 81.5573 58.1108 80.192 58.1108 78.4C58.1108 76.608 58.6441 75.2427 59.7108 74.304C60.8201 73.3653 62.3988 72.896 64.4468 72.896Z" fill="#FFF0E6"/>
<path d="M72.8528 36.8C75.1568 36.8 76.8421 37.5893 77.9088 39.168C78.3781 39.808 78.7621 40.6613 79.0608 41.728C79.3594 42.7947 79.5088 43.968 79.5088 45.248C79.5088 47.4667 78.9328 49.5147 77.7808 51.392C76.6288 53.2693 74.9434 54.72 72.7248 55.744L72.1488 54.592C73.2581 54.08 74.2394 53.3547 75.0928 52.416C75.9888 51.4347 76.6074 50.4107 76.9488 49.344C77.1621 48.7467 77.2688 48.0427 77.2688 47.232C77.2688 46.592 77.2261 46.1227 77.1408 45.824C76.0314 47.1467 74.4741 47.808 72.4688 47.808C70.7621 47.808 69.3968 47.3387 68.3728 46.4C67.3488 45.4187 66.8368 44.0533 66.8368 42.304C66.8368 40.64 67.3914 39.3173 68.5008 38.336C69.6101 37.312 71.0608 36.8 72.8528 36.8Z" fill="#FFF0E6"/>
<path d="M82.3768 34.176C83.6994 34.2187 84.6594 34.5387 85.2568 35.136C85.8541 35.7333 86.2594 36.9707 86.4728 38.848C86.7288 40.6827 86.8568 43.648 86.8568 47.744C86.8568 52.992 88.1794 56.7893 90.8248 59.136C93.5128 61.44 97.1608 63.0187 101.769 63.872C97.2034 64.7253 93.5768 66.3253 90.8888 68.672C88.2008 71.0187 86.8568 74.7947 86.8568 80C86.8568 84.2667 86.7288 87.3387 86.4728 89.216C86.2594 91.0933 85.8541 92.3093 85.2568 92.864C84.6594 93.4613 83.6994 93.7813 82.3768 93.824V95.04C86.4301 95.04 89.5874 94.592 91.8488 93.696C94.1101 92.8 95.7528 91.264 96.7768 89.088C97.8434 86.9547 98.3768 83.9253 98.3768 80C98.3768 75.904 98.5048 72.7893 98.7608 70.656C99.0594 68.48 99.5501 66.944 100.233 66.048C100.915 65.1093 101.918 64.576 103.241 64.448H103.561V63.296H103.241C101.918 63.2107 100.915 62.72 100.233 61.824C99.5501 60.8853 99.0594 59.3493 98.7608 57.216C98.5048 55.04 98.3768 51.8827 98.3768 47.744C98.3768 43.9467 97.8434 41.0027 96.7768 38.912C95.7528 36.7787 94.0888 35.264 91.7848 34.368C89.5234 33.4293 86.3874 32.96 82.3768 32.96V34.176Z" fill="#FFF0E6"/>
</svg>
