<svg width="128" height="128" viewBox="0 0 128 128" fill="none" xmlns="http://www.w3.org/2000/svg">
<rect width="128" height="128" rx="64" fill="black"/>
<path fill-rule="evenodd" clip-rule="evenodd" d="M64.647 59.5888C62.5643 57.506 59.1874 57.506 57.1046 59.5888L45.0098 71.6835C41.8856 74.8077 41.8856 79.873 45.0098 82.9972C48.134 86.1214 53.1993 86.1214 56.3235 82.9972L58.2091 81.1116C59.2505 80.0702 60.939 80.0702 61.9804 81.1116C63.0218 82.153 63.0218 83.8414 61.9804 84.8828L60.0948 86.7685C54.8878 91.9755 46.4456 91.9755 41.2386 86.7685C36.0316 81.5615 36.0316 73.1193 41.2386 67.9123L53.3333 55.8175C57.4989 51.6519 64.2527 51.6519 68.4183 55.8175L70.3039 57.7031C71.3453 58.7445 71.3453 60.433 70.3039 61.4744C69.2625 62.5158 67.5741 62.5158 66.5327 61.4744L64.647 59.5888Z" fill="white"/>
<path fill-rule="evenodd" clip-rule="evenodd" d="M67.8969 41.2386C73.1039 36.0316 81.5461 36.0316 86.753 41.2386C91.96 46.4456 91.96 54.8878 86.753 60.0948L74.6583 72.1895C70.4927 76.3551 63.7389 76.3551 59.5733 72.1895L57.6877 70.3039C56.6463 69.2625 56.6463 67.5741 57.6877 66.5327C58.7291 65.4913 60.4176 65.4913 61.459 66.5327L63.3446 68.4183C65.4274 70.5011 68.8043 70.5011 70.8871 68.4183L82.9818 56.3235C86.106 53.1993 86.106 48.134 82.9818 45.0098C79.8576 41.8856 74.7923 41.8856 71.6681 45.0098L69.7825 46.8954C68.7411 47.9368 67.0526 47.9368 66.0112 46.8954C64.9698 45.854 64.9698 44.1656 66.0112 43.1242L67.8969 41.2386Z" fill="white"/>
</svg>
